<?xml version="1.0" encoding="UTF-8"?>
<!DOCTYPE svg PUBLIC "-//W3C//DTD SVG 1.1//EN" "http://www.w3.org/Graphics/SVG/1.1/DTD/svg11.dtd">
<svg xmlns="http://www.w3.org/2000/svg" version="1.1" width="751px" height="751px" style="shape-rendering:geometricPrecision; text-rendering:geometricPrecision; image-rendering:optimizeQuality; fill-rule:evenodd; clip-rule:evenodd" xmlns:xlink="http://www.w3.org/1999/xlink">
<g><path style="opacity:1" fill="#5057a1" d="M 85.5,343.5 C 83.8599,344.32 82.1932,345.153 80.5,346C 72.4978,347.204 64.4978,348.37 56.5,349.5C 81.6635,338.242 105.33,324.075 127.5,307C 130.07,304.933 132.07,302.433 133.5,299.5C 130.894,298.348 128.227,298.182 125.5,299C 121.71,300.026 118.043,301.193 114.5,302.5C 114.075,299.881 113.075,297.547 111.5,295.5C 120.935,291.14 130.602,290.473 140.5,293.5C 141.83,297.203 141.664,300.87 140,304.5C 137.872,307.63 135.372,310.463 132.5,313C 118.106,325.192 102.44,335.359 85.5,343.5 Z"/></g>
<g><path style="opacity:1" fill="#f7dc3f" d="M 111.5,295.5 C 113.075,297.547 114.075,299.881 114.5,302.5C 111.465,308.576 107.965,308.909 104,303.5C 102.835,297.496 105.335,294.829 111.5,295.5 Z"/></g>
<g><path style="opacity:1" fill="#fadc3c" d="M 134.5,376.5 C 133.985,374.106 133.319,371.772 132.5,369.5C 147.215,357.618 160.048,343.951 171,328.5C 181.935,307.105 176.602,302.105 155,313.5C 148.993,317.684 143.16,322.017 137.5,326.5C 136.585,324.246 135.252,322.246 133.5,320.5C 142.315,312.254 152.315,305.754 163.5,301C 180.968,296.805 187.801,303.305 184,320.5C 173.833,338.021 161.333,353.854 146.5,368C 142.88,371.467 138.88,374.3 134.5,376.5 Z"/></g>
<g><path style="opacity:1" fill="#4b55a0" d="M 84.5,318.5 C 82.3963,316.628 81.063,314.295 80.5,311.5C 81.0506,304.552 84.7172,302.052 91.5,304C 96.2988,307.071 97.4655,311.238 95,316.5C 91.8938,319.319 88.3938,319.986 84.5,318.5 Z"/></g>
<g><path style="opacity:1" fill="#f9dc3a" d="M 80.5,311.5 C 81.063,314.295 82.3963,316.628 84.5,318.5C 70.6757,324.335 58.1757,332.335 47,342.5C 45.6319,343.993 45.4652,345.493 46.5,347C 49.7206,348.278 53.054,349.111 56.5,349.5C 64.4978,348.37 72.4978,347.204 80.5,346C 82.1932,345.153 83.8599,344.32 85.5,343.5C 94.7308,344.082 104.064,344.915 113.5,346C 122.883,349.953 125.05,356.453 120,365.5C 111.146,374.999 100.979,382.666 89.5,388.5C 89.385,386.053 88.385,384.053 86.5,382.5C 93.3287,376.874 100.662,371.707 108.5,367C 111.026,363.974 113.36,360.807 115.5,357.5C 114.605,355.693 113.272,354.36 111.5,353.5C 106.948,352.014 102.281,351.348 97.5,351.5C 91.5827,351.216 85.916,351.883 80.5,353.5C 75.1471,354.137 69.8137,354.97 64.5,356C 58.5,356.667 52.5,356.667 46.5,356C 41.6687,354.176 38.6687,350.842 37.5,346C 38.71,340.261 41.71,335.595 46.5,332C 57.1169,323.863 68.4502,317.03 80.5,311.5 Z"/></g>
<g><path style="opacity:1" fill="#49539e" d="M 133.5,320.5 C 135.252,322.246 136.585,324.246 137.5,326.5C 136.82,336.834 132.154,339.167 123.5,333.5C 120.381,324.045 123.715,319.712 133.5,320.5 Z"/></g>
<g><path style="opacity:1" fill="#4e57a1" d="M 97.5,351.5 C 95.0381,354.464 92.3714,357.297 89.5,360C 70.7755,372.729 52.9421,386.563 36,401.5C 31.7804,407.728 33.4471,411.061 41,411.5C 49.8499,409.492 57.6832,405.492 64.5,399.5C 63.8911,402.878 65.2244,404.878 68.5,405.5C 59.0893,415.694 47.4227,419.861 33.5,418C 25.5464,414.517 23.3797,408.684 27,400.5C 30.4651,396.033 34.2984,391.867 38.5,388C 53.3207,376.424 68.3207,365.09 83.5,354C 82.552,353.517 81.552,353.351 80.5,353.5C 85.916,351.883 91.5827,351.216 97.5,351.5 Z"/></g>
<g><path style="opacity:1" fill="#49539f" d="M 215.5,354.5 C 230.837,354.333 246.17,354.5 261.5,355C 266.41,358.568 266.743,362.568 262.5,367C 246.833,367.333 231.167,367.667 215.5,368C 212.317,369.018 210.984,371.185 211.5,374.5C 211.279,377.791 212.613,380.291 215.5,382C 228.833,382.333 242.167,382.667 255.5,383C 267.428,387.955 271.928,396.788 269,409.5C 266.01,415.825 261.177,419.991 254.5,422C 238.5,422.667 222.5,422.667 206.5,422C 200.914,417.579 201.247,413.579 207.5,410C 222.833,409.667 238.167,409.333 253.5,409C 259.241,403.442 258.574,398.775 251.5,395C 238.833,394.667 226.167,394.333 213.5,394C 200.025,388.268 195.858,378.434 201,364.5C 205.012,359.762 209.845,356.429 215.5,354.5 Z"/></g>
<g><path style="opacity:1" fill="#f9db32" d="M 314.5,355.5 C 332.547,355.069 350.547,355.569 368.5,357C 381.122,364.628 384.955,375.461 380,389.5C 376.618,394.713 372.118,398.713 366.5,401.5C 368.833,404.167 371.167,406.833 373.5,409.5C 376.785,410.324 380.118,410.824 383.5,411C 387.292,413.053 388.458,416.219 387,420.5C 380.732,424.041 374.232,424.374 367.5,421.5C 361.16,415.326 355.16,408.826 349.5,402C 340.84,401.5 332.173,401.334 323.5,401.5C 323.877,408.257 323.377,414.924 322,421.5C 316.896,424.353 313.229,423.02 311,417.5C 311.369,398.932 311.203,380.432 310.5,362C 310.895,359.14 312.228,356.973 314.5,355.5 Z M 323.5,367.5 C 335.838,367.333 348.171,367.5 360.5,368C 369.714,371.2 371.881,377.033 367,385.5C 364.913,386.794 362.746,387.961 360.5,389C 348.171,389.5 335.838,389.667 323.5,389.5C 323.5,382.167 323.5,374.833 323.5,367.5 Z"/></g>
<g><path style="opacity:1" fill="#f9dc33" d="M 409.5,354.5 C 420.505,354.333 431.505,354.5 442.5,355C 458.044,359.296 463.211,369.129 458,384.5C 455.131,387.704 451.965,390.537 448.5,393C 432.557,394.438 416.557,394.938 400.5,394.5C 399.884,400.848 402.218,405.682 407.5,409C 421.5,409.333 435.5,409.667 449.5,410C 455.309,413.05 455.975,417.05 451.5,422C 436.833,422.667 422.167,422.667 407.5,422C 396.408,419.576 390.241,412.742 389,401.5C 388.188,390.794 388.522,380.127 390,369.5C 394.051,361.279 400.551,356.279 409.5,354.5 Z M 407.5,367.5 C 419.505,367.333 431.505,367.5 443.5,368C 449.092,373.167 448.759,377.833 442.5,382C 428.504,382.5 414.504,382.667 400.5,382.5C 399.967,376.074 402.3,371.074 407.5,367.5 Z"/></g>
<g><path style="opacity:1" fill="#f9dc33" d="M 474.5,354.5 C 477.707,355.026 480.207,356.692 482,359.5C 482.5,367.159 482.666,374.826 482.5,382.5C 491.506,382.666 500.506,382.5 509.5,382C 520.766,378.054 526.766,370.054 527.5,358C 530.762,353.537 534.262,353.37 538,357.5C 539.96,370.679 535.46,381.012 524.5,388.5C 535.792,396.33 540.125,406.997 537.5,420.5C 534.494,423.057 531.494,423.057 528.5,420.5C 527.112,411.987 523.445,404.653 517.5,398.5C 514.344,396.837 511.011,395.67 507.5,395C 499.173,394.5 490.84,394.334 482.5,394.5C 482.938,402.943 482.438,411.277 481,419.5C 476.927,423.619 473.26,423.285 470,418.5C 469.333,398.5 469.333,378.5 470,358.5C 471.397,356.93 472.897,355.596 474.5,354.5 Z"/></g>
<g><path style="opacity:1" fill="#f9dc34" d="M 577.5,354.5 C 592.2,353.041 605.034,357.041 616,366.5C 623.901,378.475 625.235,391.142 620,404.5C 611.538,417.335 599.538,423.335 584,422.5C 560.786,422.784 547.62,411.45 544.5,388.5C 545.318,375.34 551.318,365.507 562.5,359C 567.522,357.173 572.522,355.673 577.5,354.5 Z M 573.5,367.5 C 580.508,367.334 587.508,367.5 594.5,368C 609.373,373.254 614.206,383.421 609,398.5C 606.373,403.791 602.206,407.291 596.5,409C 588.5,409.667 580.5,409.667 572.5,409C 559.529,403.653 555.029,394.153 559,380.5C 561.92,373.9 566.753,369.567 573.5,367.5 Z"/></g>
<g><path style="opacity:1" fill="#f9dc33" d="M 649.5,354.5 C 661.433,354.469 671.433,358.802 679.5,367.5C 686.757,358.706 696.09,354.539 707.5,355C 716.347,356.179 722.181,361.013 725,369.5C 725.667,386.167 725.667,402.833 725,419.5C 721.735,422.924 718.235,423.257 714.5,420.5C 713.667,404.844 713.167,389.177 713,373.5C 712.326,371.483 711.159,369.817 709.5,368.5C 697.907,365.979 690.074,370.313 686,381.5C 685.667,393.833 685.333,406.167 685,418.5C 680.464,424.057 676.464,423.724 673,417.5C 672.923,404.444 672.256,391.444 671,378.5C 666.095,370.297 658.928,366.797 649.5,368C 647.667,368.5 646.5,369.667 646,371.5C 645.667,386.833 645.333,402.167 645,417.5C 641.421,423.753 637.421,424.086 633,418.5C 632.333,402.5 632.333,386.5 633,370.5C 635.743,362.256 641.243,356.922 649.5,354.5 Z"/></g>
<g><path style="opacity:1" fill="#45509d" d="M 278.5,355.5 C 285.947,355.071 293.281,355.571 300.5,357C 303.077,360.262 303.077,363.595 300.5,367C 298.866,367.494 297.199,367.66 295.5,367.5C 295.5,381.833 295.5,396.167 295.5,410.5C 302.049,410.917 304.049,414.25 301.5,420.5C 297.519,421.766 293.352,422.432 289,422.5C 285.167,422.333 281.333,422.167 277.5,422C 274.43,419.431 273.763,416.264 275.5,412.5C 277.51,410.829 279.843,410.162 282.5,410.5C 282.5,396.167 282.5,381.833 282.5,367.5C 275.818,368.175 273.318,365.175 275,358.5C 275.985,357.186 277.152,356.186 278.5,355.5 Z"/></g>
<g><path style="opacity:1" fill="#4e56a1" d="M 132.5,369.5 C 133.319,371.772 133.985,374.106 134.5,376.5C 132.368,383.228 128.035,385.061 121.5,382C 117.066,376.605 117.733,371.938 123.5,368C 126.741,367.207 129.741,367.707 132.5,369.5 Z"/></g>
<g><path style="opacity:1" fill="#4c55a1" d="M 583.5,376.5 C 587.388,375.989 589.721,377.655 590.5,381.5C 593.06,382.747 595.727,383.747 598.5,384.5C 599.342,387.836 598.176,390.503 595,392.5C 596.822,401.333 593.988,403.333 586.5,398.5C 577.983,403.651 574.816,401.318 577,391.5C 574.973,390.307 573.473,388.64 572.5,386.5C 572.977,385.522 573.643,384.689 574.5,384C 579.657,383.959 582.657,381.459 583.5,376.5 Z"/></g>
<g><path style="opacity:1" fill="#f5db2a" d="M 146.5,388.5 C 145.077,390.545 143.077,391.545 140.5,391.5C 137.1,391.269 135.1,389.436 134.5,386C 135.953,380.861 139.287,379.194 144.5,381C 146.278,383.135 146.945,385.635 146.5,388.5 Z"/></g>
<g><path style="opacity:1" fill="#4d56a1" d="M 86.5,382.5 C 88.385,384.053 89.385,386.053 89.5,388.5C 89.4065,395.091 86.0731,397.924 79.5,397C 73.2527,393.845 72.0861,389.345 76,383.5C 79.3034,381.256 82.8034,380.923 86.5,382.5 Z"/></g>
<g><path style="opacity:1" fill="#4f57a2" d="M 146.5,388.5 C 153.185,396.552 157.185,405.885 158.5,416.5C 158.172,422.828 154.839,426.161 148.5,426.5C 144.78,425.88 141.114,425.047 137.5,424C 127.038,419.603 117.038,414.437 107.5,408.5C 110.08,406.911 111.413,404.578 111.5,401.5C 120.052,406.608 128.719,411.441 137.5,416C 141.721,417.622 146.054,418.288 150.5,418C 151.022,417.439 151.355,416.772 151.5,416C 148.323,407.646 144.657,399.479 140.5,391.5C 143.077,391.545 145.077,390.545 146.5,388.5 Z"/></g>
<g><path style="opacity:1" fill="#f6dc35" d="M 111.5,401.5 C 111.413,404.578 110.08,406.911 107.5,408.5C 97.7736,409.941 94.2736,405.941 97,396.5C 100.257,393.572 104.091,392.738 108.5,394C 110.65,396.041 111.65,398.541 111.5,401.5 Z"/></g>
<g><path style="opacity:1" fill="#f9db3c" d="M 68.5,405.5 C 65.2244,404.878 63.8911,402.878 64.5,399.5C 66.5451,393.865 69.7118,393.198 74,397.5C 75.3237,402.553 73.4903,405.22 68.5,405.5 Z"/></g>
</svg>
