<?xml version="1.0" encoding="UTF-8"?>
<!DOCTYPE svg PUBLIC "-//W3C//DTD SVG 1.1//EN" "http://www.w3.org/Graphics/SVG/1.1/DTD/svg11.dtd">
<svg xmlns="http://www.w3.org/2000/svg" version="1.1" width="800px" height="800px" style="shape-rendering:geometricPrecision; text-rendering:geometricPrecision; image-rendering:optimizeQuality; fill-rule:evenodd; clip-rule:evenodd" xmlns:xlink="http://www.w3.org/1999/xlink">
<g><path style="opacity:1" fill="#4f57a1" d="M 98.5,366.5 C 90.6088,368.277 82.6088,369.277 74.5,369.5C 92.107,360.519 109.44,350.686 126.5,340C 134.384,334.645 141.551,328.478 148,321.5C 148.483,320.552 148.649,319.552 148.5,318.5C 141.941,318.958 135.607,320.291 129.5,322.5C 129.075,319.881 128.075,317.547 126.5,315.5C 130.772,313.909 135.106,312.409 139.5,311C 160.415,311.584 163.081,319.251 147.5,334C 131.774,345.919 115.441,356.752 98.5,366.5 Z"/></g>
<g><path style="opacity:1" fill="#f6dc39" d="M 126.5,315.5 C 128.075,317.547 129.075,319.881 129.5,322.5C 127.403,327.532 124.07,328.532 119.5,325.5C 116.465,318.304 118.799,314.971 126.5,315.5 Z"/></g>
<g><path style="opacity:1" fill="#fadc3b" d="M 151.5,398.5 C 149.707,396.574 148.707,394.241 148.5,391.5C 164.38,378.12 178.214,362.786 190,345.5C 191.924,341.236 193.757,336.903 195.5,332.5C 192.833,327.81 188.833,326.31 183.5,328C 172.347,332.713 162.347,339.213 153.5,347.5C 152.55,344.885 150.883,342.885 148.5,341.5C 157.981,332.859 168.648,326.026 180.5,321C 200.516,317.516 207.016,325.35 200,344.5C 189.376,361.132 176.876,376.299 162.5,390C 159.008,393.051 155.341,395.884 151.5,398.5 Z"/></g>
<g><path style="opacity:1" fill="#4c55a0" d="M 97.5,338.5 C 96.2271,336.287 95.2271,333.954 94.5,331.5C 95.7476,324.771 99.7476,322.271 106.5,324C 113.919,331.236 112.752,336.736 103,340.5C 101.1,339.923 99.2666,339.256 97.5,338.5 Z"/></g>
<g><path style="opacity:1" fill="#f9dc3c" d="M 94.5,331.5 C 95.2271,333.954 96.2271,336.287 97.5,338.5C 89.2171,343.312 80.8838,348.145 72.5,353C 67.6733,356.827 63.1733,360.994 59,365.5C 58.5943,368.299 59.9276,369.633 63,369.5C 66.8117,370.514 70.6451,370.514 74.5,369.5C 82.6088,369.277 90.6088,368.277 98.5,366.5C 109.268,364.847 119.935,365.347 130.5,368C 139.218,372.804 140.718,379.304 135,387.5C 132.537,390.965 129.704,394.131 126.5,397C 118.92,402.111 111.254,406.944 103.5,411.5C 103.85,408.547 102.85,406.213 100.5,404.5C 109.519,398.6 118.186,392.267 126.5,385.5C 128.086,383.33 129.42,380.996 130.5,378.5C 129.315,377.147 127.981,375.98 126.5,375C 121.552,373.95 116.552,373.45 111.5,373.5C 107.102,373.294 102.768,373.627 98.5,374.5C 84.9244,377.572 71.2577,378.405 57.5,377C 49.9899,372.831 48.4899,366.998 53,359.5C 65.1449,347.522 78.9782,338.189 94.5,331.5 Z"/></g>
<g><path style="opacity:1" fill="#4a549f" d="M 148.5,341.5 C 150.883,342.885 152.55,344.885 153.5,347.5C 153.519,355.641 149.519,358.808 141.5,357C 137.279,353.178 136.446,348.678 139,343.5C 141.904,341.773 145.07,341.107 148.5,341.5 Z"/></g>
<g><path style="opacity:1" fill="#4e57a1" d="M 111.5,373.5 C 109.372,376.13 107.039,378.63 104.5,381C 91.6311,390.706 78.6311,400.206 65.5,409.5C 57.8123,415.021 51.3123,421.688 46,429.5C 45.3333,430.5 45.3333,431.5 46,432.5C 52.4217,435.16 58.7551,434.827 65,431.5C 69.329,428.663 73.4957,425.663 77.5,422.5C 77.3419,425.522 78.6752,427.522 81.5,428.5C 71.5457,440.284 58.879,444.451 43.5,441C 36.8509,436.036 35.6842,429.869 40,422.5C 45.1772,417.323 50.3439,412.156 55.5,407C 70.2453,396.637 84.5786,385.803 98.5,374.5C 102.768,373.627 107.102,373.294 111.5,373.5 Z"/></g>
<g><path style="opacity:1" fill="#48529f" d="M 234.5,376.5 C 250.17,376.333 265.837,376.5 281.5,377C 286.724,380.993 286.724,384.993 281.5,389C 265.5,389.333 249.5,389.667 233.5,390C 230.141,391.135 228.808,393.468 229.5,397C 229.563,399.685 230.563,401.851 232.5,403.5C 245.487,404.333 258.487,404.833 271.5,405C 288.634,410.042 293.634,420.875 286.5,437.5C 283.115,441.707 278.782,444.54 273.5,446C 257.167,446.667 240.833,446.667 224.5,446C 219.684,442.424 219.351,438.424 223.5,434C 239.5,433.667 255.5,433.333 271.5,433C 276.224,430.565 277.724,426.731 276,421.5C 274.786,419.951 273.286,418.785 271.5,418C 258.5,417.667 245.5,417.333 232.5,417C 218.604,412.373 213.77,402.873 218,388.5C 221.541,381.589 227.041,377.589 234.5,376.5 Z"/></g>
<g><path style="opacity:1" fill="#47529e" d="M 297.5,377.5 C 305.174,377.334 312.841,377.5 320.5,378C 324.144,381.27 324.478,384.936 321.5,389C 319.527,389.495 317.527,389.662 315.5,389.5C 315.5,404.167 315.5,418.833 315.5,433.5C 322.314,433.49 324.814,436.823 323,443.5C 322.167,444.333 321.333,445.167 320.5,446C 312.833,446.667 305.167,446.667 297.5,446C 293.518,442.076 293.518,438.076 297.5,434C 299.134,433.506 300.801,433.34 302.5,433.5C 302.5,418.833 302.5,404.167 302.5,389.5C 293.988,388.51 292.321,384.51 297.5,377.5 Z"/></g>
<g><path style="opacity:1" fill="#f9db32" d="M 334.5,377.5 C 352.836,377.333 371.17,377.5 389.5,378C 405.133,386.109 409.3,398.276 402,414.5C 398.264,418.603 394.097,422.103 389.5,425C 392.172,427.672 394.839,430.339 397.5,433C 400.5,433.333 403.5,433.667 406.5,434C 411.644,436.743 412.644,440.577 409.5,445.5C 403.234,447.926 396.901,448.093 390.5,446C 384.195,439.026 377.862,432.026 371.5,425C 362.84,424.5 354.173,424.334 345.5,424.5C 345.666,430.509 345.499,436.509 345,442.5C 340.078,449.435 335.744,449.102 332,441.5C 332.363,422.265 332.196,403.099 331.5,384C 332.406,381.779 333.406,379.612 334.5,377.5 Z M 345.5,389.5 C 358.171,389.333 370.838,389.5 383.5,390C 391.227,392.559 393.894,397.726 391.5,405.5C 390.133,408.06 388.133,409.894 385.5,411C 372.171,411.5 358.837,411.667 345.5,411.5C 345.5,404.167 345.5,396.833 345.5,389.5 Z"/></g>
<g><path style="opacity:1" fill="#f9dc33" d="M 433.5,376.5 C 446.885,376.097 460.218,376.597 473.5,378C 483.293,383.682 487.127,392.182 485,403.5C 481.973,410.532 476.806,415.032 469.5,417C 454.504,417.5 439.504,417.667 424.5,417.5C 423.878,424.424 426.545,429.591 432.5,433C 447.5,433.333 462.5,433.667 477.5,434C 481.649,438.424 481.316,442.424 476.5,446C 461.5,446.667 446.5,446.667 431.5,446C 420.449,442.949 413.949,435.783 412,424.5C 411.105,414.439 411.438,404.439 413,394.5C 416.026,383.964 422.859,377.964 433.5,376.5 Z M 431.5,389.5 C 443.838,389.333 456.171,389.5 468.5,390C 474.584,394.312 474.917,398.979 469.5,404C 454.504,404.5 439.504,404.667 424.5,404.5C 424.407,398.353 426.74,393.353 431.5,389.5 Z"/></g>
<g><path style="opacity:1" fill="#f9db32" d="M 500.5,376.5 C 503.374,376.623 505.874,377.623 508,379.5C 508.5,387.827 508.666,396.16 508.5,404.5C 519.603,404.954 530.603,404.454 541.5,403C 543.5,401.667 545.5,400.333 547.5,399C 552.195,393.422 554.695,386.922 555,379.5C 561.65,374.908 565.817,376.574 567.5,384.5C 566.493,395.689 561.493,404.522 552.5,411C 563.088,418.856 567.922,429.356 567,442.5C 563.462,447.289 559.628,447.622 555.5,443.5C 555.14,429.904 548.473,421.404 535.5,418C 526.506,417.5 517.506,417.334 508.5,417.5C 508.831,426.192 508.498,434.859 507.5,443.5C 503.372,447.622 499.538,447.289 496,442.5C 495.333,421.833 495.333,401.167 496,380.5C 497.397,378.93 498.897,377.596 500.5,376.5 Z"/></g>
<g><path style="opacity:1" fill="#f9dc33" d="M 606.5,376.5 C 621.33,374.628 634.497,378.295 646,387.5C 656.266,402.088 656.933,417.088 648,432.5C 641.673,440.248 633.507,444.748 623.5,446C 606.556,448.905 592.056,444.405 580,432.5C 571.067,417.088 571.734,402.088 582,387.5C 589.087,381.202 597.254,377.536 606.5,376.5 Z M 603.5,389.5 C 610.508,389.334 617.508,389.5 624.5,390C 632.502,392.003 638.002,396.836 641,404.5C 643.433,419.142 637.6,428.642 623.5,433C 614.184,434.372 605.184,433.372 596.5,430C 587.349,423.845 584.182,415.345 587,404.5C 590.173,396.822 595.673,391.822 603.5,389.5 Z"/></g>
<g><path style="opacity:1" fill="#f9db32" d="M 681.5,376.5 C 693.644,376.028 703.644,380.361 711.5,389.5C 721.161,378.51 733.161,374.677 747.5,378C 753.07,380.943 756.903,385.443 759,391.5C 759.833,408.843 759.666,426.176 758.5,443.5C 754.96,447.446 751.46,447.446 748,443.5C 747.667,427.5 747.333,411.5 747,395.5C 743.82,389.766 738.987,387.933 732.5,390C 724.479,393.216 719.646,399.049 718,407.5C 717.667,419.5 717.333,431.5 717,443.5C 713.54,447.446 710.04,447.446 706.5,443.5C 705.667,430.846 705.167,418.18 705,405.5C 701.162,393.306 692.995,388.139 680.5,390C 679.213,391.41 678.046,392.91 677,394.5C 676.667,410.167 676.333,425.833 676,441.5C 672.535,447.816 668.535,448.149 664,442.5C 663.333,425.833 663.333,409.167 664,392.5C 666.89,383.77 672.723,378.437 681.5,376.5 Z"/></g>
<g><path style="opacity:1" fill="#4e57a1" d="M 148.5,391.5 C 148.707,394.241 149.707,396.574 151.5,398.5C 149.615,400.053 148.615,402.053 148.5,404.5C 145.729,406.086 142.729,406.586 139.5,406C 132.017,401.105 131.684,395.772 138.5,390C 142.103,389.157 145.436,389.657 148.5,391.5 Z"/></g>
<g><path style="opacity:1" fill="#4b55a0" d="M 614.5,398.5 C 615.583,398.539 616.583,398.873 617.5,399.5C 619.538,404.357 623.204,407.023 628.5,407.5C 629.342,410.836 628.176,413.503 625,415.5C 626.697,424.486 623.697,426.486 616,421.5C 607.699,426.893 604.366,424.559 606,414.5C 604.5,412.667 603,410.833 601.5,409C 604.092,406.938 607.092,405.605 610.5,405C 611.234,402.439 612.567,400.273 614.5,398.5 Z"/></g>
<g><path style="opacity:1" fill="#f6dc34" d="M 163.5,410.5 C 162.188,411.145 161.188,412.145 160.5,413.5C 158.955,414.452 157.288,414.785 155.5,414.5C 150.922,413.157 149.422,410.157 151,405.5C 157.929,400.454 162.096,402.12 163.5,410.5 Z"/></g>
<g><path style="opacity:1" fill="#4d56a0" d="M 100.5,404.5 C 102.85,406.213 103.85,408.547 103.5,411.5C 102.526,419.823 98.1927,422.156 90.5,418.5C 86.4659,413.762 86.7992,409.262 91.5,405C 94.4816,404.502 97.4816,404.335 100.5,404.5 Z"/></g>
<g><path style="opacity:1" fill="#5058a2" d="M 163.5,410.5 C 164.973,414.825 167.14,418.825 170,422.5C 173.198,429.199 174.865,436.199 175,443.5C 172.97,447.915 169.47,450.248 164.5,450.5C 149.399,447.033 135.732,440.7 123.5,431.5C 125.319,429.528 126.319,427.195 126.5,424.5C 138.267,432.233 150.934,438.233 164.5,442.5C 165.902,442.135 166.902,441.301 167.5,440C 165.467,430.499 161.467,421.999 155.5,414.5C 157.288,414.785 158.955,414.452 160.5,413.5C 161.188,412.145 162.188,411.145 163.5,410.5 Z"/></g>
<g><path style="opacity:1" fill="#f6db33" d="M 126.5,424.5 C 126.319,427.195 125.319,429.528 123.5,431.5C 113.415,433.914 109.415,430.081 111.5,420C 116.085,415.5 120.918,415.334 126,419.5C 126.494,421.134 126.66,422.801 126.5,424.5 Z"/></g>
<g><path style="opacity:1" fill="#f8db3b" d="M 81.5,428.5 C 78.6752,427.522 77.3419,425.522 77.5,422.5C 80.0182,416.942 83.5182,416.275 88,420.5C 89.3154,426.017 87.1488,428.683 81.5,428.5 Z"/></g>
</svg>
