<?xml version="1.0" encoding="UTF-8"?>
<!DOCTYPE svg PUBLIC "-//W3C//DTD SVG 1.1//EN" "http://www.w3.org/Graphics/SVG/1.1/DTD/svg11.dtd">
<svg xmlns="http://www.w3.org/2000/svg" version="1.1" width="939px" height="939px" style="shape-rendering:geometricPrecision; text-rendering:geometricPrecision; image-rendering:optimizeQuality; fill-rule:evenodd; clip-rule:evenodd" xmlns:xlink="http://www.w3.org/1999/xlink">
<g><path style="opacity:1" fill="#4f57a1" d="M 93.5,439.5 C 83.3902,442.351 73.0569,444.018 62.5,444.5C 84.6952,433.399 106.362,421.232 127.5,408C 134.272,402.438 141.272,397.105 148.5,392C 151.701,389.298 154.368,386.131 156.5,382.5C 147.876,380.441 139.876,381.774 132.5,386.5C 132.66,384.801 132.494,383.134 132,381.5C 130.624,380.295 129.458,378.962 128.5,377.5C 138.871,371.662 149.871,370.162 161.5,373C 167.22,377.624 168.054,383.124 164,389.5C 161.175,393.325 158.008,396.825 154.5,400C 135.396,415.209 115.063,428.376 93.5,439.5 Z"/></g>
<g><path style="opacity:1" fill="#f5db3c" d="M 128.5,377.5 C 129.458,378.962 130.624,380.295 132,381.5C 132.494,383.134 132.66,384.801 132.5,386.5C 128.441,392.639 123.941,392.972 119,387.5C 117.721,379.615 120.888,376.282 128.5,377.5 Z"/></g>
<g><path style="opacity:1" fill="#fadc3c" d="M 157.5,479.5 C 158.076,475.888 157.076,472.888 154.5,470.5C 174.403,455.086 191.569,436.752 206,415.5C 209.178,409.975 211.678,404.142 213.5,398C 211.687,394.005 208.521,392.172 204,392.5C 199.341,393.053 194.841,394.22 190.5,396C 180.444,401.895 171.111,408.728 162.5,416.5C 161.211,413.609 159.211,411.275 156.5,409.5C 157.028,408.279 157.695,407.113 158.5,406C 170.115,396.024 183.115,388.358 197.5,383C 206.055,380.964 213.555,382.798 220,388.5C 223.256,398.193 222.256,407.527 217,416.5C 210.696,425.479 204.363,434.479 198,443.5C 186.575,455.256 174.742,466.756 162.5,478C 160.975,479.009 159.308,479.509 157.5,479.5 Z"/></g>
<g><path style="opacity:1" fill="#4b54a0" d="M 93.5,405.5 C 93.0997,403.623 92.0997,402.123 90.5,401C 89.7665,399.234 89.4332,397.401 89.5,395.5C 91.3201,388.085 95.9868,385.585 103.5,388C 105.329,388.273 106.829,389.107 108,390.5C 111.688,399.661 108.855,405.327 99.5,407.5C 97.4035,407.023 95.4035,406.357 93.5,405.5 Z"/></g>
<g><path style="opacity:1" fill="#f9dc39" d="M 89.5,395.5 C 89.4332,397.401 89.7665,399.234 90.5,401C 92.0997,402.123 93.0997,403.623 93.5,405.5C 75.2612,413.684 59.0946,424.684 45,438.5C 44.2888,440.367 44.7888,441.867 46.5,443C 51.7364,444.339 57.0698,444.839 62.5,444.5C 73.0569,444.018 83.3902,442.351 93.5,439.5C 104.865,438.027 116.198,438.194 127.5,440C 145.438,445.851 148.271,456.017 136,470.5C 132.833,472.333 130.333,474.833 128.5,478C 119.472,483.511 110.472,489.011 101.5,494.5C 100.656,491.322 98.9895,488.655 96.5,486.5C 107.755,479.409 118.588,471.742 129,463.5C 130.483,460.677 131.983,457.843 133.5,455C 133.241,453.739 132.574,452.739 131.5,452C 126.682,450.045 121.682,448.879 116.5,448.5C 113.167,447.167 109.833,447.167 106.5,448.5C 102.731,448.244 99.0641,448.577 95.5,449.5C 93.2646,449.205 91.2646,449.539 89.5,450.5C 78.4838,451.856 67.3171,453.189 56,454.5C 49.7017,454.251 43.8684,452.584 38.5,449.5C 34.7086,443.692 34.5419,437.692 38,431.5C 45.2434,424.254 53.0768,417.754 61.5,412C 70.7286,406.223 80.0619,400.723 89.5,395.5 Z"/></g>
<g><path style="opacity:1" fill="#4c55a0" d="M 156.5,409.5 C 159.211,411.275 161.211,413.609 162.5,416.5C 162.319,424.513 158.319,428.679 150.5,429C 145.101,428.103 142.435,424.937 142.5,419.5C 142.507,415.957 143.507,412.79 145.5,410C 149.152,409.501 152.818,409.335 156.5,409.5 Z"/></g>
<g><path style="opacity:0.498" fill="#e1d1a6" d="M 106.5,448.5 C 109.833,447.167 113.167,447.167 116.5,448.5C 114.05,448.298 111.717,448.631 109.5,449.5C 108.791,448.596 107.791,448.263 106.5,448.5 Z"/></g>
<g><path style="opacity:1" fill="#4e57a1" d="M 106.5,448.5 C 107.791,448.263 108.791,448.596 109.5,449.5C 104.628,455.539 98.9612,460.705 92.5,465C 76.0942,476.194 60.0942,487.86 44.5,500C 40.6667,503.833 36.8333,507.667 33,511.5C 26.9852,519.47 28.9852,523.47 39,523.5C 43.2017,522.878 47.3683,522.045 51.5,521C 57.3334,516.916 63.0001,512.75 68.5,508.5C 68.3398,510.199 68.5065,511.866 69,513.5C 70.7505,514.222 72.2505,515.222 73.5,516.5C 64.3265,526.94 52.6599,532.607 38.5,533.5C 18.7246,531.615 14.2246,522.282 25,505.5C 31.1975,498.968 37.6975,492.801 44.5,487C 61.0211,475.295 77.3544,463.462 93.5,451.5C 94.5,451.167 95.1667,450.5 95.5,449.5C 99.0641,448.577 102.731,448.244 106.5,448.5 Z"/></g>
<g><path style="opacity:1" fill="#b2a49f" d="M 89.5,450.5 C 91.2646,449.539 93.2646,449.205 95.5,449.5C 95.1667,450.5 94.5,451.167 93.5,451.5C 92.4324,450.566 91.099,450.232 89.5,450.5 Z"/></g>
<g><path style="opacity:1" fill="#49539f" d="M 261.5,451.5 C 280.503,451.333 299.503,451.5 318.5,452C 323.945,454.11 325.778,457.944 324,463.5C 322.992,465.259 321.492,466.426 319.5,467C 300.5,467.333 281.5,467.667 262.5,468C 255.817,470.626 253.65,475.459 256,482.5C 257.167,483.667 258.333,484.833 259.5,486C 275.5,486.333 291.5,486.667 307.5,487C 323.887,491.109 331.053,501.609 329,518.5C 327.667,521.833 326.333,525.167 325,528.5C 322.205,530.293 319.705,532.46 317.5,535C 315.285,536.044 312.952,536.71 310.5,537C 289.833,537.667 269.167,537.667 248.5,537C 244.788,534.487 243.622,530.987 245,526.5C 246.543,524.622 248.376,523.122 250.5,522C 270.167,521.667 289.833,521.333 309.5,521C 315.64,513.628 314.64,507.628 306.5,503C 290.5,502.667 274.5,502.333 258.5,502C 241.287,495.423 235.787,483.256 242,465.5C 246.735,458.23 253.235,453.563 261.5,451.5 Z"/></g>
<g><path style="opacity:1" fill="#f9db30" d="M 386.5,452.5 C 408.553,452.044 430.553,452.544 452.5,454C 471.676,463.517 476.842,478.017 468,497.5C 463.854,503.488 458.687,508.155 452.5,511.5C 455.598,514.776 458.598,518.276 461.5,522C 465.5,522.333 469.5,522.667 473.5,523C 480.995,527.733 481.328,532.733 474.5,538C 467.848,539.951 461.181,539.951 454.5,538C 446.384,529.595 438.384,521.095 430.5,512.5C 419.52,511.501 408.52,511.168 397.5,511.5C 397.666,518.841 397.5,526.174 397,533.5C 392.725,539.989 387.725,540.656 382,535.5C 381.333,509.5 381.333,483.5 382,457.5C 383.025,455.313 384.525,453.646 386.5,452.5 Z M 397.5,468.5 C 413.17,468.333 428.837,468.5 444.5,469C 456.868,473.893 459.202,481.726 451.5,492.5C 449.205,493.432 446.871,494.265 444.5,495C 428.837,495.5 413.17,495.667 397.5,495.5C 397.5,486.5 397.5,477.5 397.5,468.5 Z"/></g>
<g><path style="opacity:1" fill="#f9dc33" d="M 506.5,451.5 C 520.837,451.333 535.171,451.5 549.5,452C 562.518,455.506 569.852,464.006 571.5,477.5C 570.062,490.438 563.062,498.604 550.5,502C 532.17,502.5 513.836,502.667 495.5,502.5C 494.493,510.313 497.159,516.48 503.5,521C 521.5,521.333 539.5,521.667 557.5,522C 564.692,524.624 566.359,529.291 562.5,536C 561.5,536.333 560.5,536.667 559.5,537C 540.833,537.667 522.167,537.667 503.5,537C 491.584,534.458 484.084,527.291 481,515.5C 480.333,501.5 480.333,487.5 481,473.5C 483.38,468.126 486.547,463.293 490.5,459C 495.526,455.651 500.86,453.151 506.5,451.5 Z M 507.5,467.5 C 521.37,467.193 535.203,467.526 549,468.5C 556.935,473.729 557.435,479.562 550.5,486C 532.17,486.5 513.836,486.667 495.5,486.5C 494.749,476.973 498.749,470.64 507.5,467.5 Z"/></g>
<g><path style="opacity:1" fill="#f9db30" d="M 598.5,458.5 C 598.5,468.167 598.5,477.833 598.5,487.5C 610.012,487.828 621.346,487.495 632.5,486.5C 637.899,486.467 642.233,484.3 645.5,480C 646.448,479.517 647.448,479.351 648.5,479.5C 649.298,476.511 650.798,473.845 653,471.5C 654.694,465.896 656.027,460.23 657,454.5C 665.466,449.663 669.966,452.163 670.5,462C 669.73,475.372 664.064,486.206 653.5,494.5C 655.522,497.356 658.022,499.689 661,501.5C 663.699,506.187 666.366,510.853 669,515.5C 670.592,522.492 670.759,529.492 669.5,536.5C 657.942,539.778 653.108,535.444 655,523.5C 651.164,511.992 643.33,505.159 631.5,503C 620.839,502.5 610.172,502.333 599.5,502.5C 599.929,513.245 599.429,523.912 598,534.5C 594.205,537.803 590.038,538.303 585.5,536C 584.874,535.25 584.374,534.416 584,533.5C 583.333,508.167 583.333,482.833 584,457.5C 586.75,451.474 590.917,450.307 596.5,454C 597.582,455.33 598.249,456.83 598.5,458.5 Z"/></g>
<g><path style="opacity:1" fill="#f9dc34" d="M 719.5,451.5 C 738.054,449.411 754.221,454.411 768,466.5C 783.265,488.871 781.432,509.705 762.5,529C 752.248,535.873 740.915,538.706 728.5,537.5C 698.72,539.05 682.053,525.05 678.5,495.5C 680.515,469.823 694.181,455.156 719.5,451.5 Z M 719.5,467.5 C 731.08,466.32 742.08,468.154 752.5,473C 762.01,482.873 764.51,494.373 760,507.5C 756.712,512.908 752.212,517.074 746.5,520C 735.573,521.597 724.573,521.931 713.5,521C 701.225,516.958 694.892,508.458 694.5,495.5C 695.871,479.802 704.204,470.469 719.5,467.5 Z"/></g>
<g><path style="opacity:1" fill="#f9dc35" d="M 811.5,451.5 C 826.494,451.499 838.828,457.166 848.5,468.5C 856.397,459.885 866.064,454.385 877.5,452C 890.577,450.785 900.077,455.952 906,467.5C 906.822,469.788 907.489,472.122 908,474.5C 908.964,494.565 908.63,514.565 907,534.5C 901.841,538.83 897.174,538.497 893,533.5C 892.667,514.167 892.333,494.833 892,475.5C 888.283,467.815 882.45,465.648 874.5,469C 864.24,472.591 858.407,479.757 857,490.5C 856.667,504.833 856.333,519.167 856,533.5C 854.607,536.366 852.274,537.699 849,537.5C 844.652,537.666 841.985,535.666 841,531.5C 840.667,516.833 840.333,502.167 840,487.5C 837.361,478.856 831.861,472.69 823.5,469C 815.904,465.615 810.07,467.448 806,474.5C 805.964,494.564 805.298,514.564 804,534.5C 802.704,536.815 800.704,537.815 798,537.5C 794.459,537.668 791.792,536.334 790,533.5C 789.333,513.167 789.333,492.833 790,472.5C 793.185,461.341 800.352,454.341 811.5,451.5 Z"/></g>
<g><path style="opacity:1" fill="#4a54a0" d="M 340.5,452.5 C 349.173,452.334 357.84,452.5 366.5,453C 372.645,457.694 372.979,462.694 367.5,468C 365.527,468.495 363.527,468.662 361.5,468.5C 361.5,486.5 361.5,504.5 361.5,522.5C 367.443,521.767 370.777,524.434 371.5,530.5C 371.372,534.085 369.705,536.585 366.5,538C 357.833,538.667 349.167,538.667 340.5,538C 335.773,535.624 334.273,531.791 336,526.5C 338.239,523.038 341.406,521.705 345.5,522.5C 345.5,504.5 345.5,486.5 345.5,468.5C 337.772,468.728 334.606,465.061 336,457.5C 337.193,455.503 338.693,453.836 340.5,452.5 Z"/></g>
<g><path style="opacity:1" fill="#4c55a0" d="M 154.5,470.5 C 157.076,472.888 158.076,475.888 157.5,479.5C 157.886,484.558 155.552,487.391 150.5,488C 138.84,488.507 135.174,483.34 139.5,472.5C 143.937,467.987 148.937,467.32 154.5,470.5 Z"/></g>
<g><path style="opacity:1" fill="#4b55a0" d="M 727.5,479.5 C 729.604,479.201 731.604,479.534 733.5,480.5C 735.488,486.842 739.821,489.509 746.5,488.5C 746.421,489.93 746.754,491.264 747.5,492.5C 746.902,493.795 746.402,495.128 746,496.5C 741.692,498.885 740.525,502.385 742.5,507C 742.095,510.739 740.095,512.073 736.5,511C 734.695,510.028 733.028,508.861 731.5,507.5C 720.91,514.738 716.743,512.071 719,499.5C 717.357,497.023 715.524,494.69 713.5,492.5C 713.919,491.328 714.585,490.328 715.5,489.5C 718.51,488.731 721.51,487.897 724.5,487C 725.642,484.55 726.642,482.05 727.5,479.5 Z"/></g>
<g><path style="opacity:1" fill="#f6db39" d="M 173.5,493.5 C 172.115,497.88 169.115,499.88 164.5,499.5C 156.589,495.356 155.922,490.523 162.5,485C 169.999,483.069 173.666,485.902 173.5,493.5 Z"/></g>
<g><path style="opacity:1" fill="#4b54a0" d="M 96.5,486.5 C 98.9895,488.655 100.656,491.322 101.5,494.5C 100.948,503.211 96.2817,507.044 87.5,506C 79.1142,500.42 78.4475,494.087 85.5,487C 89.1516,486.501 92.8183,486.335 96.5,486.5 Z"/></g>
<g><path style="opacity:0.498" fill="#fceca5" d="M 598.5,458.5 C 599.494,467.652 599.827,476.985 599.5,486.5C 610.5,486.5 621.5,486.5 632.5,486.5C 621.346,487.495 610.012,487.828 598.5,487.5C 598.5,477.833 598.5,468.167 598.5,458.5 Z"/></g>
<g><path style="opacity:1" fill="#4f58a2" d="M 173.5,493.5 C 178.801,502.435 183.301,511.768 187,521.5C 190.709,540.588 183.209,547.088 164.5,541C 151.625,536.23 139.625,529.897 128.5,522C 126.846,521.392 125.179,520.892 123.5,520.5C 126.356,517.995 128.356,514.995 129.5,511.5C 139.197,518.341 149.53,524.175 160.5,529C 166.093,530.983 171.759,532.316 177.5,533C 178.795,529.158 178.628,525.325 177,521.5C 173.708,513.55 169.541,506.217 164.5,499.5C 169.115,499.88 172.115,497.88 173.5,493.5 Z"/></g>
<g><path style="opacity:1" fill="#f6dc36" d="M 129.5,511.5 C 128.356,514.995 126.356,517.995 123.5,520.5C 115.043,522.886 110.043,519.719 108.5,511C 109.833,503 114.5,499.667 122.5,501C 127.065,503.056 129.398,506.556 129.5,511.5 Z"/></g>
<g><path style="opacity:1" fill="#f8db41" d="M 73.5,516.5 C 72.2505,515.222 70.7505,514.222 69,513.5C 68.5065,511.866 68.3398,510.199 68.5,508.5C 71.6755,501.431 75.8422,500.764 81,506.5C 82.8694,513.129 80.3694,516.462 73.5,516.5 Z"/></g>
</svg>
