<?xml version="1.0" encoding="UTF-8"?>
<!DOCTYPE svg PUBLIC "-//W3C//DTD SVG 1.1//EN" "http://www.w3.org/Graphics/SVG/1.1/DTD/svg11.dtd">
<svg xmlns="http://www.w3.org/2000/svg" version="1.1" width="2134px" height="2135px" style="shape-rendering:geometricPrecision; text-rendering:geometricPrecision; image-rendering:optimizeQuality; fill-rule:evenodd; clip-rule:evenodd" xmlns:xlink="http://www.w3.org/1999/xlink">
<g><path style="opacity:1" fill="#424e9c" d="M 237.5,1000.5 C 236.508,1000.33 235.842,1000.66 235.5,1001.5C 213.231,1004.97 190.898,1007.97 168.5,1010.5C 184.722,1003.06 201.056,995.56 217.5,988C 234.865,978.319 252.199,968.652 269.5,959C 284.997,948.75 300.664,938.75 316.5,929C 329.188,919.638 341.855,910.305 354.5,901C 363.679,892.487 372.179,883.32 380,873.5C 380.617,872.551 380.451,871.718 379.5,871C 360.522,869.151 342.522,872.651 325.5,881.5C 327.066,872.966 324.066,866.633 316.5,862.5C 328.509,857.441 340.842,853.275 353.5,850C 363.514,848.065 373.514,848.065 383.5,850C 396.392,853.6 401.892,862.1 400,875.5C 397.117,887.065 390.95,896.565 381.5,904C 370.084,914.753 358.084,924.753 345.5,934C 343.754,934.471 342.087,935.138 340.5,936C 328.853,945.157 316.853,953.823 304.5,962C 282.43,975.366 260.097,988.199 237.5,1000.5 Z"/></g>
<g><path style="opacity:1" fill="#f5db22" d="M 316.5,862.5 C 324.066,866.633 327.066,872.966 325.5,881.5C 320.685,891.939 313.018,894.773 302.5,890C 294.805,883.467 293.639,875.967 299,867.5C 304.041,862.618 309.874,860.951 316.5,862.5 Z"/></g>
<g><path style="opacity:1" fill="#f8db26" d="M 381.5,1089.5 C 382.901,1081.86 380.901,1075.19 375.5,1069.5C 417.317,1035.85 453.817,997.183 485,953.5C 489.985,944.198 494.985,934.865 500,925.5C 509.481,899.963 500.648,890.13 473.5,896C 465.682,898.747 458.015,901.747 450.5,905C 445.833,907.667 441.167,910.333 436.5,913C 421.002,924.056 406.002,935.556 391.5,947.5C 389.161,940.494 384.494,935.827 377.5,933.5C 398.481,913.038 422.148,896.205 448.5,883C 464.58,874.864 481.58,872.197 499.5,875C 511.491,877.727 519.325,884.894 523,896.5C 525.091,905.573 524.757,914.573 522,923.5C 518.222,936.721 512.555,949.055 505,960.5C 472.888,1006.63 435.055,1047.79 391.5,1084C 388.011,1085.58 384.677,1087.41 381.5,1089.5 Z"/></g>
<g><path style="opacity:1" fill="#424e9c" d="M 240.5,923.5 C 234.552,918.603 231.552,912.27 231.5,904.5C 232.181,893.991 237.514,887.158 247.5,884C 259.518,881.594 268.352,885.761 274,896.5C 278.372,910.072 274.205,919.906 261.5,926C 254.07,928.49 247.07,927.656 240.5,923.5 Z"/></g>
<g><path style="opacity:1" fill="#f8da27" d="M 231.5,904.5 C 231.552,912.27 234.552,918.603 240.5,923.5C 207.196,939.477 176.196,958.977 147.5,982C 141.561,987.265 136.395,993.098 132,999.5C 131.75,1003.94 133.916,1006.78 138.5,1008C 148.322,1011.14 158.322,1011.98 168.5,1010.5C 190.898,1007.97 213.231,1004.97 235.5,1001.5C 236.492,1001.67 237.158,1001.34 237.5,1000.5C 251.79,998.979 266.123,997.979 280.5,997.5C 299.319,996.964 317.319,1000.46 334.5,1008C 349.978,1020.68 352.812,1035.85 343,1053.5C 335.627,1065.21 326.46,1075.38 315.5,1084C 300.017,1093.24 285.017,1103.24 270.5,1114C 265.486,1115.85 260.819,1118.35 256.5,1121.5C 255.107,1114.39 251.441,1108.72 245.5,1104.5C 264.606,1091.77 283.94,1079.27 303.5,1067C 309.279,1061.22 315.113,1055.39 321,1049.5C 323,1046.17 325,1042.83 327,1039.5C 330.146,1033.09 328.646,1028.26 322.5,1025C 307.536,1020.27 292.203,1018.1 276.5,1018.5C 266.391,1018.89 256.391,1019.89 246.5,1021.5C 245.833,1021.5 245.5,1021.83 245.5,1022.5C 222.765,1024.3 200.098,1026.8 177.5,1030C 162.693,1032.35 148.026,1031.68 133.5,1028C 113.223,1021.4 107.056,1008.23 115,988.5C 120.746,980.083 127.246,972.25 134.5,965C 147.642,955.923 160.642,946.59 173.5,937C 188.146,928.365 202.813,919.699 217.5,911C 222.11,908.526 226.777,906.359 231.5,904.5 Z"/></g>
<g><path style="opacity:1" fill="#424e9c" d="M 377.5,933.5 C 384.494,935.827 389.161,940.494 391.5,947.5C 393.317,957.903 389.984,966.07 381.5,972C 369.079,977.77 358.579,975.27 350,964.5C 344.194,940.808 353.361,930.475 377.5,933.5 Z"/></g>
<g><path style="opacity:1" fill="#424e9c" d="M 276.5,1018.5 C 276.415,1020.93 275.415,1022.93 273.5,1024.5C 260.509,1037 246.509,1048.16 231.5,1058C 200.515,1080.98 169.515,1103.98 138.5,1127C 126.96,1137.51 115.794,1148.34 105,1159.5C 102.268,1163.24 99.9343,1167.24 98,1171.5C 95.6706,1178.17 97.8373,1182.33 104.5,1184C 119.122,1187.95 133.122,1186.28 146.5,1179C 160.713,1172.27 173.713,1163.77 185.5,1153.5C 184.756,1163.08 189.089,1168.41 198.5,1169.5C 182.166,1183.68 163.832,1194.85 143.5,1203C 135.385,1204.55 127.218,1205.71 119,1206.5C 107.912,1206.28 97.4117,1203.78 87.5,1199C 77.058,1190.34 73.8913,1179.5 78,1166.5C 80.637,1159.22 84.3036,1152.56 89,1146.5C 96.469,1138.03 104.302,1129.86 112.5,1122C 141.474,1099.18 170.807,1076.85 200.5,1055C 203.629,1053.6 206.629,1051.93 209.5,1050C 221.35,1040.58 233.35,1031.42 245.5,1022.5C 246.167,1022.5 246.5,1022.17 246.5,1021.5C 256.391,1019.89 266.391,1018.89 276.5,1018.5 Z"/></g>
<g><path style="opacity:1" fill="#424e9c" d="M 610.5,1027.5 C 652.835,1027.33 695.168,1027.5 737.5,1028C 750.268,1033.36 753.602,1042.19 747.5,1054.5C 745.246,1056.92 742.579,1058.75 739.5,1060C 697.213,1061.31 654.879,1061.98 612.5,1062C 597.273,1069.01 593.107,1080.18 600,1095.5C 603.337,1099.85 607.504,1103.01 612.5,1105C 645.833,1105.33 679.167,1105.67 712.5,1106C 748.869,1113.87 764.702,1136.37 760,1173.5C 757.823,1184.66 752.656,1194.16 744.5,1202C 738.33,1205.92 731.997,1209.59 725.5,1213C 721.58,1214.31 717.58,1215.31 713.5,1216C 671.167,1216.67 628.833,1216.67 586.5,1216C 580.096,1214.72 576.263,1210.89 575,1204.5C 574.023,1199.27 574.69,1194.27 577,1189.5C 578.938,1186.89 581.438,1185.06 584.5,1184C 626.787,1182.69 669.121,1182.02 711.5,1182C 727.077,1175.68 731.577,1164.51 725,1148.5C 721.395,1144.28 716.895,1141.45 711.5,1140C 678.167,1139.67 644.833,1139.33 611.5,1139C 581.64,1132.45 565.307,1113.95 562.5,1083.5C 562.787,1074.35 564.953,1065.69 569,1057.5C 578.496,1041.5 592.329,1031.5 610.5,1027.5 Z"/></g>
<g><path style="opacity:1" fill="#f8db26" d="M 1153.5,1027.5 C 1184.5,1027.33 1215.5,1027.5 1246.5,1028C 1264.89,1031.78 1279.05,1041.61 1289,1057.5C 1301.05,1085.14 1295.55,1108.64 1272.5,1128C 1264.54,1134.14 1255.54,1137.81 1245.5,1139C 1206.83,1139.5 1168.17,1139.67 1129.5,1139.5C 1126.29,1160.26 1134.29,1174.43 1153.5,1182C 1190.83,1182.33 1228.17,1182.67 1265.5,1183C 1277.08,1185.59 1281.92,1192.75 1280,1204.5C 1278.04,1210.73 1273.87,1214.56 1267.5,1216C 1229.5,1216.67 1191.5,1216.67 1153.5,1216C 1121.06,1210.22 1101.89,1191.06 1096,1158.5C 1095.33,1134.5 1095.33,1110.5 1096,1086.5C 1099.98,1061.86 1113.15,1044.02 1135.5,1033C 1141.53,1030.82 1147.53,1028.98 1153.5,1027.5 Z M 1154.5,1061.5 C 1184.5,1061.33 1214.5,1061.5 1244.5,1062C 1260.5,1068.51 1265,1079.67 1258,1095.5C 1254.59,1100.25 1250.09,1103.42 1244.5,1105C 1206.17,1105.5 1167.83,1105.67 1129.5,1105.5C 1126.51,1084.12 1134.85,1069.45 1154.5,1061.5 Z"/></g>
<g><path style="opacity:1" fill="#f8db26" d="M 1336.5,1027.5 C 1344.49,1026.91 1350.65,1029.91 1355,1036.5C 1356.45,1059.46 1356.95,1082.46 1356.5,1105.5C 1381.17,1105.67 1405.84,1105.5 1430.5,1105C 1464.43,1097.4 1481.93,1076.24 1483,1041.5C 1488.07,1028.38 1496.9,1024.88 1509.5,1031C 1514.14,1035.11 1516.47,1040.28 1516.5,1046.5C 1515.5,1070.69 1507,1091.69 1491,1109.5C 1485.57,1113.26 1480.4,1117.43 1475.5,1122C 1502.69,1142.21 1516.19,1169.37 1516,1203.5C 1511.47,1214.18 1503.64,1218.01 1492.5,1215C 1487.88,1212.38 1484.72,1208.55 1483,1203.5C 1482.34,1168.31 1464.84,1147.14 1430.5,1140C 1405.84,1139.5 1381.17,1139.33 1356.5,1139.5C 1356.67,1160.84 1356.5,1182.17 1356,1203.5C 1353.03,1213.07 1346.53,1217.24 1336.5,1216C 1329.63,1214.46 1325.46,1210.3 1324,1203.5C 1323.33,1149.5 1323.33,1095.5 1324,1041.5C 1325.21,1034.13 1329.37,1029.46 1336.5,1027.5 Z"/></g>
<g><path style="opacity:1" fill="#f8db26" d="M 1625.5,1027.5 C 1652.53,1024.79 1678.53,1028.63 1703.5,1039C 1739.19,1058.87 1755.69,1089.37 1753,1130.5C 1748.17,1174.34 1724.33,1201.84 1681.5,1213C 1656.83,1217.65 1632.16,1217.65 1607.5,1213C 1586.66,1208.84 1569.49,1198.67 1556,1182.5C 1535.1,1155.53 1529.43,1125.53 1539,1092.5C 1548.65,1064.85 1567.15,1045.68 1594.5,1035C 1604.73,1031.53 1615.07,1029.03 1625.5,1027.5 Z M 1624.5,1061.5 C 1637.17,1061.33 1649.84,1061.5 1662.5,1062C 1706.34,1068.51 1724.84,1093.67 1718,1137.5C 1713.04,1159.12 1699.88,1172.96 1678.5,1179C 1673.55,1180.26 1668.55,1181.26 1663.5,1182C 1650.5,1182.67 1637.5,1182.67 1624.5,1182C 1589.45,1177.46 1570.79,1157.62 1568.5,1122.5C 1568.75,1094.83 1581.75,1075.99 1607.5,1066C 1613.28,1064.42 1618.94,1062.92 1624.5,1061.5 Z"/></g>
<g><path style="opacity:1" fill="#f8db26" d="M 1829.5,1027.5 C 1862.73,1026.87 1889.57,1039.54 1910,1065.5C 1932,1037.25 1960.84,1025.08 1996.5,1029C 2016.25,1035.09 2029.92,1047.75 2037.5,1067C 2038.71,1070.75 2039.54,1074.58 2040,1078.5C 2040.67,1120.17 2040.67,1161.83 2040,1203.5C 2035.21,1214.48 2027.04,1218.31 2015.5,1215C 2011.51,1212.01 2008.68,1208.18 2007,1203.5C 2006.67,1162.17 2006.33,1120.83 2006,1079.5C 2002.61,1067.61 1994.78,1061.61 1982.5,1061.5C 1962.2,1062.63 1946.37,1071.63 1935,1088.5C 1930.9,1095.69 1928.24,1103.35 1927,1111.5C 1926.67,1142.17 1926.33,1172.83 1926,1203.5C 1923.98,1211.85 1918.64,1216.18 1910,1216.5C 1901.32,1216.14 1895.99,1211.81 1894,1203.5C 1893.67,1172.83 1893.33,1142.17 1893,1111.5C 1888.61,1088.44 1875.45,1072.61 1853.5,1064C 1845.97,1061.77 1838.3,1061.1 1830.5,1062C 1821.9,1064.93 1816.4,1070.76 1814,1079.5C 1813.67,1120.83 1813.33,1162.17 1813,1203.5C 1807.63,1216.38 1798.79,1219.55 1786.5,1213C 1783.47,1210.44 1781.3,1207.27 1780,1203.5C 1779.03,1159.8 1779.37,1116.13 1781,1072.5C 1786.36,1053.14 1798.19,1039.31 1816.5,1031C 1820.92,1029.65 1825.25,1028.48 1829.5,1027.5 Z"/></g>
<g><path style="opacity:1" fill="#f8db26" d="M 891.5,1028.5 C 933.501,1028.33 975.501,1028.5 1017.5,1029C 1044.07,1032.25 1062.57,1046.09 1073,1070.5C 1082.84,1100.98 1075.34,1126.15 1050.5,1146C 1043.89,1150.14 1036.89,1153.47 1029.5,1156C 1037.95,1165.61 1046.62,1174.94 1055.5,1184C 1063.83,1184.33 1072.17,1184.67 1080.5,1185C 1091.53,1191.08 1094.36,1199.91 1089,1211.5C 1087.02,1214.3 1084.52,1216.47 1081.5,1218C 1070.21,1219.52 1058.88,1219.86 1047.5,1219C 1043.9,1218.85 1040.57,1217.85 1037.5,1216C 1019.78,1196.95 1002.11,1177.95 984.5,1159C 960.169,1158.5 935.836,1158.33 911.5,1158.5C 911.667,1174.5 911.5,1190.5 911,1206.5C 907.036,1217.4 899.536,1221.23 888.5,1218C 882.06,1215.23 878.226,1210.39 877,1203.5C 877.385,1151.46 877.218,1099.46 876.5,1047.5C 877.49,1037.86 882.49,1031.52 891.5,1028.5 Z M 911.5,1063.5 C 946.835,1063.33 982.168,1063.5 1017.5,1064C 1037.98,1070.79 1045.48,1084.62 1040,1105.5C 1035.68,1113.48 1029.18,1118.98 1020.5,1122C 984.207,1123.47 947.874,1123.97 911.5,1123.5C 911.5,1103.5 911.5,1083.5 911.5,1063.5 Z"/></g>
<g><path style="opacity:1" fill="#424e9c" d="M 786.5,1029.5 C 805.17,1029.33 823.836,1029.5 842.5,1030C 852.335,1035.5 855.502,1043.66 852,1054.5C 847.886,1061.64 841.719,1064.64 833.5,1063.5C 833.5,1103.5 833.5,1143.5 833.5,1183.5C 845.647,1182.64 852.314,1188.31 853.5,1200.5C 852.801,1208.02 849.134,1213.52 842.5,1217C 823.833,1217.67 805.167,1217.67 786.5,1217C 775.474,1210.92 772.64,1202.09 778,1190.5C 782.999,1184.14 789.499,1181.81 797.5,1183.5C 797.5,1143.5 797.5,1103.5 797.5,1063.5C 779.841,1064.01 773.008,1055.68 777,1038.5C 779.406,1034.59 782.572,1031.59 786.5,1029.5 Z"/></g>
<g><path style="opacity:1" fill="#424e9c" d="M 375.5,1069.5 C 380.901,1075.19 382.901,1081.86 381.5,1089.5C 377.805,1103.36 368.805,1109.19 354.5,1107C 338.246,1099.91 334.08,1088.41 342,1072.5C 352.346,1061.82 363.513,1060.82 375.5,1069.5 Z"/></g>
<g><path style="opacity:1" fill="#424e9c" d="M 1646.5,1087.5 C 1649.48,1087.1 1652.15,1087.77 1654.5,1089.5C 1657.12,1095.24 1660.12,1100.74 1663.5,1106C 1669.71,1107.79 1676.05,1109.13 1682.5,1110C 1685.73,1113.81 1686.23,1117.97 1684,1122.5C 1679.86,1125.73 1676.19,1129.39 1673,1133.5C 1673.06,1139.11 1673.89,1144.61 1675.5,1150C 1674.34,1156.17 1670.67,1158.83 1664.5,1158C 1659.53,1155.6 1654.7,1153.1 1650,1150.5C 1644.33,1152.58 1638.83,1155.08 1633.5,1158C 1630.15,1158.93 1627.32,1158.1 1625,1155.5C 1624.69,1147.82 1624.69,1140.15 1625,1132.5C 1621.7,1128.2 1618.04,1124.2 1614,1120.5C 1611.58,1115.83 1612.75,1112.33 1617.5,1110C 1622.83,1109 1628.17,1108 1633.5,1107C 1637.94,1100.41 1642.27,1093.91 1646.5,1087.5 Z"/></g>
<g><path style="opacity:1" fill="#f5db22" d="M 416.5,1120.5 C 413.059,1128.23 407.059,1131.89 398.5,1131.5C 385.045,1126.93 381.212,1118.27 387,1105.5C 394.333,1097.52 402.499,1096.52 411.5,1102.5C 416.287,1107.65 417.953,1113.65 416.5,1120.5 Z"/></g>
<g><path style="opacity:1" fill="#424e9c" d="M 245.5,1104.5 C 251.441,1108.72 255.107,1114.39 256.5,1121.5C 256.212,1139.95 246.878,1147.78 228.5,1145C 224.398,1144.27 220.898,1142.44 218,1139.5C 210.948,1127.08 212.448,1115.91 222.5,1106C 229.955,1102.05 237.622,1101.55 245.5,1104.5 Z"/></g>
<g><path style="opacity:1" fill="#424e9c" d="M 416.5,1120.5 C 429.877,1140.93 440.377,1162.93 448,1186.5C 453.749,1217.75 440.916,1230.92 409.5,1226C 403.715,1224.74 398.048,1223.07 392.5,1221C 376.887,1214.53 361.554,1207.53 346.5,1200C 333.472,1192.16 320.472,1184.32 307.5,1176.5C 310.186,1174.47 312.686,1172.14 315,1169.5C 316.486,1166.15 317.653,1162.82 318.5,1159.5C 343.674,1174.59 369.674,1188.42 396.5,1201C 405.953,1204.12 415.62,1205.78 425.5,1206C 427.919,1204.31 428.919,1201.98 428.5,1199C 427.697,1191.68 426.197,1184.51 424,1177.5C 416.77,1161.37 408.27,1146.03 398.5,1131.5C 407.059,1131.89 413.059,1128.23 416.5,1120.5 Z"/></g>
<g><path style="opacity:1" fill="#f5db22" d="M 318.5,1159.5 C 317.653,1162.82 316.486,1166.15 315,1169.5C 312.686,1172.14 310.186,1174.47 307.5,1176.5C 295.682,1181.24 285.515,1178.9 277,1169.5C 273.513,1161.08 273.68,1152.75 277.5,1144.5C 290.392,1132.27 302.892,1132.61 315,1145.5C 316.992,1149.96 318.159,1154.63 318.5,1159.5 Z"/></g>
<g><path style="opacity:1" fill="#f8db26" d="M 198.5,1169.5 C 189.089,1168.41 184.756,1163.08 185.5,1153.5C 185.153,1146.35 188.486,1142.18 195.5,1141C 212.347,1140.2 217.847,1147.7 212,1163.5C 208.523,1167.82 204.023,1169.82 198.5,1169.5 Z"/></g>
</svg>
